<svg xmlns="http://www.w3.org/2000/svg" width="56" height="40" viewBox="0 0 56 40" fill="none">
    <g clipPath="url(#clip0_553_3657)">
        <path fill="#fff" d="M31.1102 20.9917C30.5498 21.2333 29.953 21.4111 29.3338 21.5167C29.0424 21.5695 28.7453 21.6 28.4455 21.6167V17.0722H27.5573V21.6195V22.8333V27.975H28.4455V22.8389C28.7453 22.8306 29.0424 22.8139 29.3338 22.7861C29.9418 22.7306 30.5386 22.6333 31.1102 22.5C34.4557 21.7222 37.1456 19.6945 38.3393 17.075H35.1058C34.3212 18.825 32.8894 20.2306 31.113 20.9945L31.1102 20.9917Z"/>
        <path fill="#fff" d="M41.9734 13.5444H39.4404H38.9837C38.9641 13.2472 38.9276 12.9528 38.8716 12.6639C38.7539 12.0528 38.5578 11.4639 38.2944 10.9028C37.0839 8.32222 34.4249 6.30278 31.1074 5.50278V6.98055C32.8866 7.74722 34.3184 9.15556 35.1002 10.9C35.3495 11.4556 35.5345 12.0472 35.6437 12.6611C35.6942 12.95 35.7306 13.2444 35.7474 13.5417H31.1102V14.4222H35.7502H38.9921H41.9734H42.1079V13.5417H41.9734V13.5444Z"/>
        <path fill="#fff" d="M17.0051 13.5472H13.8893V14.4278H17.0107C17.0303 14.725 17.0696 15.0194 17.1228 15.3055C17.2405 15.9167 17.4366 16.5055 17.7 17.0694C18.9077 19.65 21.5695 21.6667 24.8842 22.4667V20.9861C23.105 20.2194 21.676 18.8139 20.8942 17.0694C20.6449 16.5139 20.4599 15.9222 20.3507 15.3055C20.3002 15.0167 20.2638 14.7222 20.247 14.4278H24.8842V13.5472H20.247H17.0023H17.0051Z"/>
        <path fill="#fff" d="M27.5545 10.9028H28.4427V6.35556V5.13889V0H27.5545V5.13611C27.2547 5.14444 26.9577 5.16111 26.6663 5.18889C26.0582 5.24444 25.4614 5.34167 24.887 5.475C21.5415 6.25278 18.8516 8.28055 17.658 10.9028H20.8942C21.6788 9.15278 23.1106 7.74722 24.887 6.98333C25.4502 6.74167 26.0442 6.56389 26.6663 6.45833C26.9577 6.40833 27.2547 6.375 27.5545 6.36111V10.9056V10.9028Z"/>
        <path fill="#fff" d="M23.5029 33.7917V34.9917V38.0306H24.9263V34.9917H29.0339C29.0704 34.9917 29.0984 34.9972 29.1236 35.0083C29.146 35.0167 29.1684 35.0306 29.1852 35.0528C29.2021 35.075 29.2133 35.1056 29.2133 35.1444V38.0889H30.6367V34.9917C30.6367 34.8417 30.6171 34.7111 30.575 34.5972C30.533 34.4833 30.4798 34.3833 30.4153 34.3C30.3509 34.2167 30.2752 34.1444 30.1912 34.0889C30.1071 34.0306 30.0174 33.9833 29.9278 33.9444C29.7176 33.8583 29.4795 33.8083 29.2161 33.7917H24.9291V32.3611H23.5057V33.7917H23.5029Z"/>
        <path fill="#fff" d="M21.1884 36.8889H17.0807C17.0443 36.8889 17.0163 36.8833 16.9911 36.8722C16.9659 36.8639 16.9463 36.85 16.9294 36.8278C16.9126 36.8055 16.9014 36.7722 16.9014 36.7333V33.7917H15.478V36.8889C15.478 37.0389 15.4976 37.1694 15.5397 37.2833C15.5817 37.3972 15.6349 37.4972 15.6994 37.5805C15.7638 37.6639 15.8395 37.7361 15.9235 37.7917C16.0076 37.85 16.0973 37.8972 16.1869 37.9361C16.3971 38.0222 16.6352 38.0722 16.8986 38.0889H21.1856V40H22.609V33.8472H21.1856V36.8861L21.1884 36.8889Z"/>
        <path fill="#fff" d="M52.3631 32.3611V33.7333H48.048C47.7818 33.75 47.5465 33.8 47.3363 33.8861C47.2439 33.925 47.157 33.9722 47.073 34.0306C46.9889 34.0861 46.9132 34.1583 46.8488 34.2417C46.7843 34.325 46.7311 34.425 46.6891 34.5389C46.6471 34.6528 46.6274 34.7833 46.6274 34.9333V38.0306H53.7612L53.7893 32.3611H52.3687H52.3631ZM52.3322 36.8306H48.0452V35.0861C48.0452 35.0472 48.0536 35.0167 48.0733 34.9944C48.0901 34.9722 48.1125 34.9583 48.1349 34.95C48.1573 34.9389 48.1881 34.9333 48.2246 34.9333H52.3322V36.8306Z"/>
        <path fill="#fff" d="M32.8502 33.7333C32.584 33.75 32.3487 33.8 32.1385 33.8861C32.0461 33.925 31.9592 33.9722 31.8751 34.0306C31.7911 34.0861 31.7154 34.1583 31.6482 34.2417C31.5809 34.325 31.5305 34.425 31.4885 34.5389C31.4464 34.6528 31.4268 34.8417 31.4268 34.9917V36.8861C31.4268 37.0361 31.4464 37.1667 31.4885 37.2806C31.5305 37.3944 31.5837 37.4944 31.6482 37.5778C31.7126 37.6611 31.7883 37.7333 31.8751 37.7889C31.9592 37.8472 32.0489 37.8944 32.1385 37.9333C32.3487 38.0194 32.5868 38.0694 32.8502 38.0861H38.5606V33.7333H32.8502ZM37.1372 36.8861H33.0295C32.9931 36.8861 32.9651 36.8806 32.9399 36.8694C32.9175 36.8611 32.895 36.8472 32.8782 36.825C32.8614 36.8028 32.8502 36.7722 32.8502 36.7333V35.0861C32.8502 35.0472 32.8586 35.0167 32.8782 34.9944C32.895 34.9722 32.9175 34.9583 32.9399 34.95C32.9623 34.9389 32.9931 34.9333 33.0295 34.9333H37.1372V36.8861Z"/>
        <path fill="#fff" d="M40.0569 33.9444C39.9644 33.9833 39.8775 34.0305 39.7935 34.0889C39.7094 34.1444 39.6338 34.2167 39.5693 34.3C39.5049 34.3833 39.4516 34.4833 39.4096 34.5972C39.3676 34.7111 39.348 34.8417 39.348 34.9917V38.0889H40.7714V35.1444C40.7714 35.1055 40.7798 35.075 40.7994 35.0528C40.8162 35.0305 40.8386 35.0167 40.861 35.0083C40.8834 34.9972 40.9143 34.9917 40.9507 34.9917H45.8401V33.7917H40.7714C40.5052 33.8083 40.2698 33.8583 40.0597 33.9444H40.0569Z"/>
        <path fill="#fff" d="M55.9972 36.8306H54.5738V38.0306H55.9972V36.8306Z"/>
        <path fill="#fff" d="M0 33.7917V34.9917H2.93926C2.97568 34.9917 3.0037 34.9972 3.02892 35.0083C3.05134 35.0167 3.07375 35.0305 3.09056 35.0528C3.10737 35.075 3.11858 35.1055 3.11858 35.1444V38.0889H4.54198V35.1444C4.54198 35.1055 4.55038 35.075 4.57 35.0528C4.58681 35.0305 4.60923 35.0167 4.63164 35.0083C4.65406 34.9972 4.68488 34.9917 4.7213 34.9917H7.66056V33.7917H0.00280196H0Z"/>
        <path fill="#fff" d="M9.09238 33.9444C8.99992 33.9833 8.91305 34.0305 8.829 34.0889C8.74494 34.1444 8.66928 34.2167 8.60484 34.3C8.54039 34.3833 8.48716 34.4833 8.44513 34.5972C8.4031 34.7111 8.38348 34.8417 8.38348 34.9917V38.0889H9.80688V35.1444C9.80688 35.1055 9.81529 35.075 9.8349 35.0528C9.85171 35.0305 9.87413 35.0167 9.89654 35.0083C9.91896 34.9972 9.94978 34.9917 9.98621 34.9917H14.8756V33.7917H9.80688C9.54069 33.8083 9.30533 33.8583 9.09518 33.9444H9.09238Z"/>
        <path fill="#fff" d="M40.0569 33.9444C39.9644 33.9833 39.8775 34.0305 39.7935 34.0889C39.7094 34.1444 39.6338 34.2167 39.5693 34.3C39.5049 34.3833 39.4516 34.4833 39.4096 34.5972C39.3676 34.7111 39.348 34.8417 39.348 34.9917V38.0889H40.7714V35.1444C40.7714 35.1055 40.7798 35.075 40.7994 35.0528C40.8162 35.0305 40.8386 35.0167 40.861 35.0083C40.8834 34.9972 40.9143 34.9917 40.9507 34.9917H45.8401V33.7917H40.7714C40.5052 33.8083 40.2698 33.8583 40.0597 33.9444H40.0569Z"/>
        <path fill="#fff" d="M55.9972 36.8306H54.5738V38.0306H55.9972V36.8306Z"/>
        <path fill="#fff" d="M0 33.7917V34.9917H2.93926C2.97568 34.9917 3.0037 34.9972 3.02892 35.0083C3.05134 35.0167 3.07375 35.0305 3.09056 35.0528C3.10737 35.075 3.11858 35.1055 3.11858 35.1444V38.0889H4.54198V35.1444C4.54198 35.1055 4.55038 35.075 4.57 35.0528C4.58681 35.0305 4.60923 35.0167 4.63164 35.0083C4.65406 34.9972 4.68488 34.9917 4.7213 34.9917H7.66056V33.7917H0.00280196H0Z"/>
    </g>
</svg>