<svg width="400" height="64" viewBox="0 0 465 64" fill="none" xmlns="http://www.w3.org/2000/svg">
    <path d="M194.97 12.4109V22.3825V47.6347H206.778V22.3825H240.853C241.155 22.3825 241.388 22.4287 241.597 22.521C241.783 22.5902 241.969 22.7057 242.108 22.8903C242.248 23.075 242.341 23.3289 242.341 23.652V48.1194H254.149V22.3825C254.149 21.1361 253.986 20.0512 253.637 19.1048C253.289 18.1584 252.847 17.3275 252.312 16.635C251.778 15.9425 251.15 15.3424 250.453 14.8807C249.756 14.396 249.012 14.0036 248.268 13.6804C246.525 12.9649 244.549 12.5494 242.364 12.4109H206.801V0.523438H194.993V12.4109H194.97Z" fill="white"></path>
    <path d="M175.769 38.1476H141.694C141.392 38.1476 141.159 38.1014 140.95 38.0091C140.741 37.9398 140.578 37.8244 140.439 37.6397C140.299 37.4551 140.206 37.2012 140.206 36.878V12.4106H128.398V38.1476C128.398 39.394 128.561 40.4789 128.91 41.4253C129.258 42.3716 129.7 43.2026 130.235 43.8951C130.769 44.5875 131.397 45.1877 132.094 45.6494C132.792 46.1341 133.535 46.5265 134.279 46.8497C136.022 47.5652 137.998 47.9807 140.183 48.1192H175.746V63.9999H187.554V12.8723H175.746V38.1245L175.769 38.1476Z" fill="white"></path>
    <path d="M434.381 0.523438V11.9262H398.585C396.377 12.0647 394.425 12.4801 392.681 13.1957C391.914 13.5188 391.194 13.9113 390.497 14.396C389.799 14.8576 389.172 15.4578 388.637 16.1502C388.102 16.8427 387.661 17.6737 387.312 18.6201C386.963 19.5664 386.801 20.6513 386.801 21.8978V47.6347H445.98L446.212 0.523438H434.427H434.381ZM434.125 37.6631H398.562V23.1673C398.562 22.8441 398.632 22.5903 398.795 22.4056C398.934 22.2209 399.12 22.1055 399.306 22.0363C399.492 21.9439 399.748 21.8978 400.05 21.8978H434.125V37.6631Z" fill="white"></path>
    <path d="M272.51 11.9263C270.302 12.0648 268.349 12.4802 266.606 13.1958C265.839 13.5189 265.118 13.9114 264.421 14.3961C263.724 14.8577 263.096 15.4579 262.538 16.1503C261.981 16.8428 261.562 17.6738 261.213 18.6202C260.865 19.5665 260.702 20.6514 260.702 21.8979V38.1248C260.702 39.3713 260.865 40.4562 261.213 41.4025C261.562 42.3489 262.004 43.1799 262.538 43.8724C263.073 44.5648 263.701 45.165 264.421 45.6266C265.118 46.1113 265.862 46.5037 266.606 46.8269C268.349 47.5425 270.325 47.9579 272.51 48.0964H319.881V11.9263H272.51ZM308.073 38.1248H273.998C273.695 38.1248 273.463 38.0787 273.254 37.9863C273.068 37.9171 272.882 37.8017 272.742 37.617C272.603 37.4324 272.51 37.1785 272.51 36.8553V23.1674C272.51 22.8442 272.58 22.5904 272.742 22.4057C272.882 22.221 273.068 22.1056 273.254 22.0364C273.44 21.944 273.695 21.8979 273.998 21.8979H308.073V38.1248Z" fill="white"></path>
    <path d="M75.4256 13.6802C74.6586 14.0033 73.938 14.3957 73.2407 14.8805C72.5434 15.3421 71.9158 15.9423 71.3812 16.6347C70.8466 17.3272 70.4049 18.1582 70.0563 19.1046C69.7076 20.0509 69.5449 21.1358 69.5449 22.3823V48.1192H81.3528V23.6518C81.3528 23.3286 81.4225 23.0747 81.5852 22.8901C81.7247 22.7054 81.9107 22.59 82.0966 22.5207C82.2826 22.4284 82.5382 22.3823 82.8404 22.3823H123.401V12.4106H81.3528C79.1446 12.5491 77.1921 12.9646 75.4489 13.6802H75.4256Z" fill="white"></path>
    <path d="M332.295 13.6802C331.528 14.0033 330.807 14.3957 330.11 14.8805C329.413 15.3421 328.785 15.9423 328.25 16.6347C327.716 17.3272 327.274 18.1582 326.925 19.1046C326.577 20.0509 326.414 21.1358 326.414 22.3823V48.1192H338.222V23.6518C338.222 23.3286 338.292 23.0747 338.454 22.8901C338.594 22.7054 338.78 22.59 338.966 22.5207C339.152 22.4284 339.407 22.3823 339.71 22.3823H380.27V12.4106H338.222C336.014 12.5491 334.061 12.9646 332.318 13.6802H332.295Z" fill="white"></path>
    <path d="M464.529 37.6631H452.721V47.6347H464.529V37.6631Z" fill="white"></path>
    <path d="M0 12.4106V22.3823H24.3828C24.685 22.3823 24.9174 22.4284 25.1266 22.5207C25.3126 22.59 25.4985 22.7054 25.638 22.8901C25.7774 23.0747 25.8704 23.3286 25.8704 23.6518V48.1192H37.6783V23.6518C37.6783 23.3286 37.748 23.0747 37.9107 22.8901C38.0502 22.7054 38.2361 22.59 38.4221 22.5207C38.6081 22.4284 38.8637 22.3823 39.1659 22.3823H63.5487V12.4106H0.0232439H0Z" fill="white"></path>
</svg>